<?xml version="1.0" encoding="UTF-8"?>
<svg version="1.1" xmlns="http://www.w3.org/2000/svg" width="566" height="310">
<path d="M0 0 C186.78 0 373.56 0 566 0 C566 102.3 566 204.6 566 310 C379.22 310 192.44 310 0 310 C0 207.7 0 105.4 0 0 Z " fill="#B42D28" transform="translate(0,0)"/>
<path d="M0 0 C2.05078125 0.03255208 4.1015625 0.06510417 6.15234375 0.09765625 C6.83296875 1.55171875 6.83296875 1.55171875 7.52734375 3.03515625 C8.81020596 6.16845207 8.81020596 6.16845207 11.15234375 7.09765625 C11.27734375 10.47265625 11.27734375 10.47265625 11.15234375 14.09765625 C10.49234375 14.75765625 9.83234375 15.41765625 9.15234375 16.09765625 C10.14234375 16.42765625 11.13234375 16.75765625 12.15234375 17.09765625 C12.64734375 18.58265625 12.64734375 18.58265625 13.15234375 20.09765625 C14.47234375 20.09765625 15.79234375 20.09765625 17.15234375 20.09765625 C17.64734375 25.54265625 17.64734375 25.54265625 18.15234375 31.09765625 C19.47234375 31.09765625 20.79234375 31.09765625 22.15234375 31.09765625 C22.64734375 37.03765625 22.64734375 37.03765625 23.15234375 43.09765625 C25.13234375 42.60265625 25.13234375 42.60265625 27.15234375 42.09765625 C27.64734375 47.54265625 27.64734375 47.54265625 28.15234375 53.09765625 C30.13234375 52.60265625 30.13234375 52.60265625 32.15234375 52.09765625 C32.15234375 54.73765625 32.15234375 57.37765625 32.15234375 60.09765625 C24.23234375 60.09765625 16.31234375 60.09765625 8.15234375 60.09765625 C7.82234375 54.48765625 7.49234375 48.87765625 7.15234375 43.09765625 C3.89931331 41.47114103 0.76008773 41.98312469 -2.84765625 42.09765625 C-4.9470541 44.1970541 -4.26690821 48.74084153 -4.41015625 51.66015625 C-4.55453125 54.44453125 -4.69890625 57.22890625 -4.84765625 60.09765625 C-12.76765625 60.09765625 -20.68765625 60.09765625 -28.84765625 60.09765625 C-28.84765625 57.12765625 -28.84765625 54.15765625 -28.84765625 51.09765625 C-27.19765625 51.42765625 -25.54765625 51.75765625 -23.84765625 52.09765625 C-23.84765625 48.79765625 -23.84765625 45.49765625 -23.84765625 42.09765625 C-22.52765625 42.42765625 -21.20765625 42.75765625 -19.84765625 43.09765625 C-19.51765625 39.13765625 -19.18765625 35.17765625 -18.84765625 31.09765625 C-17.52765625 30.76765625 -16.20765625 30.43765625 -14.84765625 30.09765625 C-14.51765625 26.79765625 -14.18765625 23.49765625 -13.84765625 20.09765625 C-12.52765625 20.09765625 -11.20765625 20.09765625 -9.84765625 20.09765625 C-9.51765625 19.10765625 -9.18765625 18.11765625 -8.84765625 17.09765625 C-7.85765625 16.76765625 -6.86765625 16.43765625 -5.84765625 16.09765625 C-6.50765625 15.43765625 -7.16765625 14.77765625 -7.84765625 14.09765625 C-7.97265625 10.47265625 -7.97265625 10.47265625 -7.84765625 7.09765625 C-6.85765625 6.76765625 -5.86765625 6.43765625 -4.84765625 6.09765625 C-3.69244123 3.62634707 -3.69244123 3.62634707 -2.84765625 1.09765625 C-1.84765625 0.09765625 -1.84765625 0.09765625 0 0 Z " fill="#DDA552" transform="translate(323.84765625,138.90234375)"/>
<path d="M0 0 C0.66 0 1.32 0 2 0 C2.24234375 0.89460938 2.4846875 1.78921875 2.734375 2.7109375 C6.61811544 17.14817901 6.61811544 17.14817901 14 30 C16.91774779 31.45887389 18.74728105 31.36823233 22 31 C30.17700915 26.53981319 34.36443358 18.81902769 39 11 C40.19673875 13.3934775 40.07299313 14.76631266 39.9921875 17.4296875 C39.96705078 18.74646484 39.96705078 18.74646484 39.94140625 20.08984375 C39.89731673 21.93900997 39.84529828 23.788005 39.78515625 25.63671875 C39.77097656 26.51714844 39.75679688 27.39757812 39.7421875 28.3046875 C39.7201123 29.10890137 39.69803711 29.91311523 39.67529297 30.74169922 C40.08638507 33.60079841 41.00729089 34.93329414 43 37 C46.65320932 37.71631555 48.94397847 37.64238133 52.1640625 35.68359375 C53.56771658 34.62447294 54.94841531 33.53402814 56.30078125 32.41015625 C58 31 58 31 60 30 C58.23576999 33.75131012 56.06102752 37.23536211 53.875 40.75 C53.50246094 41.35199219 53.12992187 41.95398438 52.74609375 42.57421875 C51.83225276 44.05042343 50.91633402 45.52534154 50 47 C45.50702303 46.40733344 41.15714417 45.61001087 36.75 44.5625 C11.32387152 39.07948709 -15.60264456 39.06885669 -40.64453125 46.29296875 C-44.04745244 47.00999871 -45.81057208 47.3653373 -49 46 C-50.94921875 43.41796875 -50.94921875 43.41796875 -52.6875 40.1875 C-53.26886719 39.12917969 -53.85023438 38.07085937 -54.44921875 36.98046875 C-55.6548121 34.66342158 -56.8478743 32.34397988 -58 30 C-57.44570312 30.42152344 -56.89140625 30.84304687 -56.3203125 31.27734375 C-55.59585938 31.82519531 -54.87140625 32.37304688 -54.125 32.9375 C-53.04605469 33.75541016 -53.04605469 33.75541016 -51.9453125 34.58984375 C-48.22096599 37.28962104 -45.57546913 37.16340961 -41 37 C-38.64214682 36.10664203 -38.64214682 36.10664203 -37.875 32.9375 C-36.27724548 26.13456082 -36.84842667 18.93869035 -37 12 C-34.87775705 14.61199133 -32.89033037 17.16981104 -31.0625 20 C-28.95202163 23.06978671 -26.73079396 25.47401559 -24 28 C-23.360625 28.598125 -22.72125 29.19625 -22.0625 29.8125 C-19.11715151 31.50830671 -17.34476179 31.54608356 -14 31 C-4.63828497 24.37829913 -2.54044341 10.51658417 0 0 Z " fill="#DCA552" transform="translate(277,32)"/>
<path d="M0 0 C105.6 0 211.2 0 320 0 C320 1.65 320 3.3 320 5 C214.4 5 108.8 5 0 5 C0 3.35 0 1.7 0 0 Z " fill="#DA9E53" transform="translate(115,122)"/>
<path d="M0 0 C4.12475481 -0.11751438 8.24907118 -0.18768824 12.375 -0.25 C13.53128906 -0.28351563 14.68757813 -0.31703125 15.87890625 -0.3515625 C23.71016859 -0.44005134 31.44278072 0.08830793 37.64599609 5.4128418 C41.9747149 10.2871384 43.58863571 15.17275742 43.44921875 21.5859375 C42.40087131 27.21966551 38.76558465 31.64501643 34.3125 35.0625 C32 36 32 36 29 36 C31.99172643 41.1091558 35.42520136 45.80331723 38.9375 50.5625 C39.55818359 51.41263672 40.17886719 52.26277344 40.81835938 53.13867188 C41.42357422 53.96044922 42.02878906 54.78222656 42.65234375 55.62890625 C43.19882568 56.37213135 43.74530762 57.11535645 44.30834961 57.88110352 C46.07006039 60.08775496 47.96881079 62.04136315 50 64 C45.2847258 65.06721443 40.58499814 65.84264579 36 64 C31.42684603 59.96328263 28.44420568 54.44884507 25.39306641 49.234375 C23.95918867 46.93454166 22.36882522 44.86751698 20.6796875 42.75 C18.39136982 39.76793895 17.26122376 37.88027987 17.625 34 C17.67914063 33.236875 17.73328125 32.47375 17.7890625 31.6875 C17.85867188 31.130625 17.92828125 30.57375 18 30 C18.75925781 29.81824219 19.51851563 29.63648438 20.30078125 29.44921875 C21.29464844 29.19785156 22.28851563 28.94648438 23.3125 28.6875 C24.79169922 28.32205078 24.79169922 28.32205078 26.30078125 27.94921875 C29.08211543 26.97112294 30.36279088 26.43368924 32 24 C32.36213568 21.48710325 32.36213568 21.48710325 32.1875 18.8125 C32.16042969 17.91144531 32.13335937 17.01039063 32.10546875 16.08203125 C32.07066406 15.39496094 32.03585937 14.70789063 32 14 C30.84239068 13.33806914 29.6731617 12.69645854 28.5 12.0625 C27.8503125 11.70285156 27.200625 11.34320313 26.53125 10.97265625 C23.19416399 9.57408289 23.19416399 9.57408289 16 9 C16 27.15 16 45.3 16 64 C11.05 64 6.1 64 1 64 C2.32 62.68 3.64 61.36 5 60 C5.60762222 57.42403289 5.60762222 57.42403289 5.53344727 54.57641602 C5.5492836 53.49171524 5.56511993 52.40701447 5.58143616 51.28944397 C5.57647629 50.12271652 5.57151642 48.95598907 5.56640625 47.75390625 C5.57260483 46.55064194 5.57880341 45.34737762 5.58518982 44.10765076 C5.59229319 41.56323048 5.58910508 39.01876378 5.57641602 36.47436523 C5.56256349 32.58034693 5.59660304 28.68873669 5.63476562 24.79492188 C5.63571692 22.32291608 5.63385747 19.85090727 5.62890625 17.37890625 C5.64216446 16.21420303 5.65542267 15.04949982 5.66908264 13.84950256 C5.78230645 7.18103309 5.78230645 7.18103309 2.46069336 1.72631836 C1.64866455 1.1566333 0.83663574 0.58694824 0 0 Z " fill="#FBF5F5" transform="translate(361,134)"/>
<path d="M0 0 C2.25 -0.3125 2.25 -0.3125 5 0 C7.375 2.0625 7.375 2.0625 9 5 C9.10872809 10.76258879 6.87595866 15.78511222 3 20 C-2.34269409 23.76975185 -6.11059534 24.57057619 -12.5625 24.3125 C-13.65594727 24.29799805 -13.65594727 24.29799805 -14.77148438 24.28320312 C-18.06457263 24.21502938 -21.10434503 23.98117174 -24.35546875 23.39453125 C-27.85586239 22.87231595 -29.19461777 23.97389061 -32 26 C-37.46898342 28.73449171 -47.14965306 27.79553334 -52.953125 26.17578125 C-56.22144268 24.72018943 -59.02189157 22.98540562 -62 21 C-65.12521833 20.83300768 -65.12521833 20.83300768 -68 21 C-68.33837891 19.81857422 -68.33837891 19.81857422 -68.68359375 18.61328125 C-69.75558058 15.8379787 -69.75558058 15.8379787 -72.28515625 14.85546875 C-81.0597336 12.62099867 -81.0597336 12.62099867 -90 13 C-91.81770833 14.18229167 -91.81770833 14.18229167 -93 16 C-93.3606631 18.05363606 -93.3606631 18.05363606 -93.1875 20.1875 C-93.0946875 22.0746875 -93.0946875 22.0746875 -93 24 C-97.875 23.125 -97.875 23.125 -99 22 C-99.5 18.75 -99.5 18.75 -99 15 C-92.95584701 8.44507352 -84.85365133 7.61354202 -76.43359375 7.0703125 C-73.67499157 7.01382235 -71.42673898 7.15105742 -68.75 7.6875 C-64.84402782 8.01299768 -63.8376286 7.65404956 -60.4375 6.0625 C-51.89677756 2.29144255 -42.36859269 2.82734475 -33.6875 5.9375 C-31.40974785 6.88741458 -29.20636101 7.89681949 -27 9 C-27.99 7.515 -27.99 7.515 -29 6 C-29 5.01 -29 4.02 -29 3 C-26.6875 2.75 -26.6875 2.75 -24 3 C-21.41561126 5.39295254 -20.98555322 7.07486057 -20.3125 10.5625 C-19.3879154 13.95854741 -19.3879154 13.95854741 -17.37890625 15.1171875 C-12.56436869 17.08805083 -8.1431438 17.67451066 -3 17 C0.14658666 15.10350449 0.14658666 15.10350449 2 12 C2.57170574 7.42635406 2.00348873 4.13219551 0 0 Z " fill="#E9B551" transform="translate(383,266)"/>
<path d="M0 0 C0.99 0.33 1.98 0.66 3 1 C2.125 4.875 2.125 4.875 1 6 C0.51138725 10.23464382 0.5624854 12.33667142 2.9375 15.9375 C7.11217193 18.74901375 10.11038137 18.86096275 15 18 C18.05838012 17.11275662 20.55605004 16.06564813 23 14 C24.47082547 10.52042471 24.47082547 10.52042471 25 7 C25.66 6.01 26.32 5.02 27 4 C29.625 3.8125 29.625 3.8125 32 4 C31.49396008 6.16874252 31.00016187 7.99967627 30 10 C30.68707031 9.72285156 31.37414062 9.44570313 32.08203125 9.16015625 C32.98308594 8.79792969 33.88414062 8.43570312 34.8125 8.0625 C35.70582031 7.70285156 36.59914062 7.34320313 37.51953125 6.97265625 C44.2418116 4.33667545 53.12752654 3.48997219 60.16796875 5.671875 C61.01294922 6.08179688 61.01294922 6.08179688 61.875 6.5 C65.91986713 8.40294624 69.93902488 8.1504138 74.3125 8.0625 C85.25981054 7.8801435 93.59128785 8.28826666 102 16 C103 17 103 17 103.1875 19.9375 C103 23 103 23 101 25 C98.375 24.625 98.375 24.625 96 24 C96.09765625 21.98177083 96.1953125 19.96354167 96.29296875 17.9453125 C96.19628906 17.30335938 96.09960938 16.66140625 96 16 C91.17954272 12.78636181 86.01933197 13.40815545 80.44921875 14.5 C75.25381622 15.99654803 73.72515354 17.29291662 71 22 C68.68025766 22.41755362 66.34214207 22.7355646 64 23 C60.22117576 24.42865532 56.61091087 26.19454457 53 28 C44.3809369 28.59542791 37.36164097 28.96110587 30 24 C27.99079187 24.27238536 25.99130425 24.61813813 24 25 C21.31918477 25.1405266 18.68030293 25.22984735 16 25.25 C14.97132813 25.2809375 14.97132813 25.2809375 13.921875 25.3125 C8.27059516 25.35563954 4.27789145 24.14417874 0.13671875 20.24609375 C-0.34152344 19.64925781 -0.81976563 19.05242187 -1.3125 18.4375 C-1.80363281 17.83808594 -2.29476562 17.23867188 -2.80078125 16.62109375 C-5.09604035 13.51838194 -5.38124597 10.90201751 -5.3671875 7.04296875 C-4.75971839 3.66311404 -2.5833196 2.06665568 0 0 Z " fill="#E8B250" transform="translate(162,265)"/>
<path d="M0 0 C3.10141057 2.32605792 5.16418293 4.78347741 7.5 7.875 C4.2 10.845 0.9 13.815 -2.5 16.875 C-3.59658936 13.58523192 -3.29953138 12.16196233 -2.5 8.875 C-4.2492214 8.79357073 -5.99954542 8.73561459 -7.75 8.6875 C-8.72453125 8.65269531 -9.6990625 8.61789063 -10.703125 8.58203125 C-13.91993272 8.91898737 -15.22923956 9.60423956 -17.5 11.875 C-18.16680368 14.83220628 -18.16680368 14.83220628 -17.5 17.875 C-14.35322177 21.92996232 -10.33288913 23.34315574 -5.6875 25.125 C1.65854141 28.11581155 6.85143487 31.57786975 10.5 38.875 C11.27336759 45.69584858 10.61276538 51.27105653 6.5 56.875 C2.32092726 61.33135718 -1.91972385 64.41475523 -8.11328125 65.2109375 C-14.40776657 65.30202991 -19.41587775 64.82674957 -24.5 60.875 C-28.4156372 56.65969669 -31.5 51.7403178 -31.5 45.875 C-26.57262981 43.90405192 -22.71979128 43.6950072 -17.5 43.875 C-18.16 44.865 -18.82 45.855 -19.5 46.875 C-19.34749525 49.925095 -18.92301114 51.40317988 -16.875 53.6875 C-13.50253484 55.37373258 -11.23136685 55.32533738 -7.5 54.875 C-2.7948474 52.42065128 -2.7948474 52.42065128 -0.5 47.875 C0.08369443 44.45961856 0.08369443 44.45961856 -0.5 40.875 C-4.00217203 36.77245562 -8.04492784 35.1132291 -12.9375 32.9375 C-19.14323653 30.17467209 -24.28869537 27.43231614 -27.9375 21.5625 C-29.06564517 16.17247309 -29.340298 11.69564567 -27 6.625 C-19.48949795 -1.63655225 -10.77564727 -3.46360091 0 0 Z " fill="#FBF6F6" transform="translate(445.5,135.125)"/>
<path d="M0 0 C4.95 0 9.9 0 15 0 C18.62198493 6.84932258 21.51175066 13.95690064 24.3737793 21.14624023 C25.19070888 23.19554965 26.0159274 25.24138888 26.84179688 27.28710938 C27.36768813 28.60136229 27.89309593 29.91580878 28.41796875 31.23046875 C28.89000732 32.41020264 29.3620459 33.58993652 29.84838867 34.80541992 C30.84043602 37.55736811 31.53048319 40.12027435 32 43 C32.66 43 33.32 43 34 43 C34.12528076 42.27780273 34.25056152 41.55560547 34.37963867 40.81152344 C34.99100278 38.04077606 35.84352869 35.63478193 36.92578125 33.015625 C37.31056641 32.07976562 37.69535156 31.14390625 38.09179688 30.1796875 C38.49462891 29.21289062 38.89746094 28.24609375 39.3125 27.25 C39.70373047 26.29867187 40.09496094 25.34734375 40.49804688 24.3671875 C42.63178482 19.20092316 44.82729822 14.06819362 47.11889648 8.9699707 C48.44930355 5.9954474 49.72414157 2.99826732 51 0 C55.95 0 60.9 0 66 0 C64.35 1.65 62.7 3.3 61 5 C56.12052123 12.6473226 52.98969827 21.76875289 49.43383789 30.10375977 C48.44020846 32.43115591 47.44016129 34.75571825 46.43945312 37.08007812 C43.35503501 44.27256046 40.34671443 51.45148735 37.78442383 58.85107422 C36.7419535 61.70691731 35.444335 64.32798025 34 67 C33.34 67 32.68 67 32 67 C31.13617071 64.9510214 30.27255546 62.90195294 29.40917969 60.8527832 C28.6744425 59.10900912 27.93941361 57.36535793 27.20410156 55.62182617 C25.19781308 50.86065393 23.21225291 46.09203139 21.25 41.3125 C19.96708099 38.21388832 18.63055925 35.21331196 17.0625 32.25 C15.01193189 28.29829789 13.53040408 24.17227482 12 20 C7.99752104 8.74769363 7.99752104 8.74769363 0 0 Z " fill="#FBF5F5" transform="translate(245,135)"/>
<path d="M0 0 C11.88 0 23.76 0 36 0 C36 4.95 36 9.9 36 15 C34.68 13.35 33.36 11.7 32 10 C24.74 9.67 17.48 9.34 10 9 C10 23.85 10 38.7 10 54 C30.34643465 55.55259116 30.34643465 55.55259116 36 49 C36 53.62 36 58.24 36 63 C24.12 63 12.24 63 0 63 C0 42.21 0 21.42 0 0 Z " fill="#FBF5F5" transform="translate(203,135)"/>
<path d="M0 0 C4.95 0 9.9 0 15 0 C13.68 1.32 12.36 2.64 11 4 C10.42464505 6.6548887 10.42464505 6.6548887 10.54589844 9.59472656 C10.54620056 10.71558655 10.54650269 11.83644653 10.54681396 12.99127197 C10.56745911 14.19555847 10.58810425 15.39984497 10.609375 16.640625 C10.61786469 18.49660309 10.61786469 18.49660309 10.62652588 20.39007568 C10.64511749 23.67177936 10.68102502 26.95269281 10.7253418 30.23413086 C10.76633835 33.58570067 10.78420499 36.93730444 10.8046875 40.2890625 C10.84880096 46.85968391 10.91574923 53.42977732 11 60 C12.98 60.99 14.96 61.98 17 63 C17 63.33 17 63.66 17 64 C11.39 64 5.78 64 0 64 C0 54.1 0 44.2 0 34 C-8.91 34 -17.82 34 -27 34 C-27 31.03 -27 28.06 -27 25 C-18.09 25 -9.18 25 0 25 C0 16.75 0 8.5 0 0 Z " fill="#FCF6F6" transform="translate(181,135)"/>
<path d="M0 0 C5.28 0 10.56 0 16 0 C16 21.12 16 42.24 16 64 C10.06 64 4.12 64 -2 64 C-0.30454567 62.86969711 1.40469928 61.7579071 3.15338135 60.71183777 C5.21894528 59.12692564 5.21894528 59.12692564 5.51898193 56.55122375 C5.52786438 55.5808165 5.53674683 54.61040924 5.54589844 53.6105957 C5.57547638 51.95922356 5.57547638 51.95922356 5.60565186 50.27449036 C5.60688049 49.08691635 5.60810913 47.89934235 5.609375 46.67578125 C5.62591125 45.45924362 5.64244751 44.24270599 5.65948486 42.98930359 C5.70813826 39.09698526 5.72937527 35.20505811 5.75 31.3125 C5.77814501 28.67641243 5.80807034 26.04034321 5.83984375 23.40429688 C5.91390206 16.93626935 5.96544281 10.46835262 6 4 C5.195625 3.71125 4.39125 3.4225 3.5625 3.125 C1 2 1 2 0 0 Z " fill="#FAF2F2" transform="translate(137,135)"/>
<path d="M0 0 C3.28870485 2.72721866 3.89723897 4.28067282 4.5 8.5 C3.92236039 12.54347727 2.9518867 14.21679254 0 17 C-0.99 17 -1.98 17 -3 17 C-2.95875 15.88625 -2.9175 14.7725 -2.875 13.625 C-2.58878141 9.95633975 -2.58878141 9.95633975 -5 8 C-8.09926819 8.32198966 -8.09926819 8.32198966 -11 9 C-11.94271002 12.25639659 -11.94271002 12.25639659 -12 16 C-9.94884956 18.69579772 -8.29495967 20.41950084 -5.1875 21.8125 C-4.465625 21.874375 -3.74375 21.93625 -3 22 C-1.906875 22.12375 -0.81375 22.2475 0.3125 22.375 C9.24341071 22.25879856 18.47640281 17.62193627 26.6875 14.375 C45.46893842 7.02875471 69.96512119 3.76913366 89.04296875 11.8671875 C90.75 12.6875 90.75 12.6875 93 14 C93 14.66 93 15.32 93 16 C86.3557394 14.13960703 86.3557394 14.13960703 83.3125 12.9453125 C79.16018452 11.76033568 75.41927492 11.69859243 71.125 11.75 C70.28638428 11.75821777 69.44776855 11.76643555 68.58374023 11.77490234 C49.49294495 12.11093792 32.14832322 16.85680017 14.53125 24.01953125 C7.30363799 26.81911553 -0.3659895 26.8225973 -8 26 C-12.58332438 23.83192514 -15.02792143 20.59852867 -17 16 C-17.6875726 9.92644202 -16.37234384 6.87116333 -13 2 C-9.48064625 -2.17108592 -4.86206398 -1.44523737 0 0 Z " fill="#DAA053" transform="translate(120,93)"/>
<path d="M0 0 C3.288623 0.26011707 4.06187183 0.73562253 6.8125 2.875 C11.78378378 9.26665058 11.78378378 9.26665058 12.4375 13.5625 C11.76245364 18.38425971 10.12894203 21.9793371 6.33984375 25.01953125 C-0.99643969 29.28271033 -8.89650411 28.33147531 -16.875 26.5 C-22.22678452 25.03667509 -27.30606966 23.05564253 -32.4609375 21.01953125 C-44.42711024 16.51570685 -56.25452938 13.69151957 -69 12.6875 C-69.88945312 12.6153125 -70.77890625 12.543125 -71.6953125 12.46875 C-80.73003845 12.11093907 -90.73974926 14.06872348 -99 17.6875 C-98 14.6875 -98 14.6875 -96.13671875 13.58984375 C-75.5091466 5.46383048 -49.91980547 7.40258376 -29.625 16.140625 C-27.38910239 17.16873863 -25.16148479 18.21518609 -22.9453125 19.28515625 C-15.94151335 22.61985638 -8.60188708 24.86477925 -0.76953125 23.21875 C2.76787918 21.83093866 5.40837788 20.16917338 7 16.6875 C6.86476161 12.8519092 6.86476161 12.8519092 5 9.6875 C2 9.52083333 2 9.52083333 -1 9.6875 C-2.20561184 10.67017859 -2.20561184 10.67017859 -2.09765625 12.53515625 C-2.08605469 13.26605469 -2.07445312 13.99695313 -2.0625 14.75 C-2.041875 16.049375 -2.02125 17.34875 -2 18.6875 C-5.65316671 17.43773244 -6.78065836 17.01651247 -9 13.6875 C-9.58971053 9.22254887 -9.28380937 7.17529735 -7 3.25 C-3.47228916 0.23674699 -3.47228916 0.23674699 0 0 Z " fill="#DA9F53" transform="translate(432,91.3125)"/>
<path d="M0 0 C2.25 -0.3125 2.25 -0.3125 5 0 C7.375 2.0625 7.375 2.0625 9 5 C9.10872809 10.76258879 6.87595866 15.78511222 3 20 C-2.34269409 23.76975185 -6.11059534 24.57057619 -12.5625 24.3125 C-13.65594727 24.29799805 -13.65594727 24.29799805 -14.77148438 24.28320312 C-18.06821209 24.21495404 -21.11207744 23.97984686 -24.3671875 23.39453125 C-27.87617826 22.86870326 -29.10946431 24.07297621 -32 26 C-35.9453012 27.21393883 -38.98579607 26.84018222 -43 26 C-43 25.67 -43 25.34 -43 25 C-39.04 24.505 -39.04 24.505 -35 24 C-35 23.01 -35 22.02 -35 21 C-34.01 20.34 -33.02 19.68 -32 19 C-38.1346545 15.04257152 -43.94417074 11.94290951 -51 10 C-50.34 9.34 -49.68 8.68 -49 8 C-41.03772827 8.3884035 -33.69500773 13.01148476 -27 17 C-27.68448536 13.89397951 -27.68448536 13.89397951 -30.07421875 12.68359375 C-34.6506931 10.50138849 -39.11320257 8.41459925 -44 7 C-44 6.67 -44 6.34 -44 6 C-47.63 5.67 -51.26 5.34 -55 5 C-55 4.67 -55 4.34 -55 4 C-44.47836132 3.48882727 -36.57038908 4.21480546 -27 9 C-27.66 8.01 -28.32 7.02 -29 6 C-29 5.01 -29 4.02 -29 3 C-26.6875 2.75 -26.6875 2.75 -24 3 C-21.41561126 5.39295254 -20.98555322 7.07486057 -20.3125 10.5625 C-19.3879154 13.95854741 -19.3879154 13.95854741 -17.37890625 15.1171875 C-12.56436869 17.08805083 -8.1431438 17.67451066 -3 17 C0.14658666 15.10350449 0.14658666 15.10350449 2 12 C2.57170574 7.42635406 2.00348873 4.13219551 0 0 Z " fill="#E8B250" transform="translate(383,266)"/>
<path d="M0 0 C2.97 0 5.94 0 9 0 C9.0093457 1.43311523 9.01869141 2.86623047 9.02832031 4.34277344 C9.0681823 9.6581942 9.13393117 14.97303386 9.20751953 20.28808594 C9.23575104 22.58879127 9.25695466 24.88959399 9.27099609 27.19042969 C9.29239486 30.49725279 9.33903108 33.80290226 9.390625 37.109375 C9.39185364 38.13867126 9.39308228 39.16796753 9.39434814 40.22845459 C9.41406677 41.18914856 9.4337854 42.14984253 9.45410156 43.13964844 C9.46298401 43.98348083 9.47186646 44.82731323 9.48101807 45.69671631 C9.92899057 48.64150017 9.92899057 48.64150017 14 52 C7.73 52 1.46 52 -5 52 C-3.68 50.68 -2.36 49.36 -1 48 C-0.39147587 45.67442166 -0.39147587 45.67442166 -0.45410156 43.13964844 C-0.42452362 41.69860748 -0.42452362 41.69860748 -0.39434814 40.22845459 C-0.39311951 39.19915833 -0.39189087 38.16986206 -0.390625 37.109375 C-0.37408875 36.04962463 -0.35755249 34.98987427 -0.34051514 33.89801025 C-0.29195445 30.51528169 -0.27064563 27.13300295 -0.25 23.75 C-0.22184717 21.45570644 -0.19192072 19.1614339 -0.16015625 16.8671875 C-0.08619286 11.24482868 -0.03666717 5.62272077 0 0 Z " fill="#FEFCFC" transform="translate(106,146)"/>
<path d="M0 0 C2.20805524 -0.0544452 4.41650554 -0.09299283 6.625 -0.125 C7.85476562 -0.14820313 9.08453125 -0.17140625 10.3515625 -0.1953125 C14 0 14 0 16.94921875 1.0078125 C20.75484955 2.24549524 24.24442826 2.13198196 28.1875 2 C39.15667847 1.85602584 47.58227448 2.28000039 56 10 C57 11 57 11 57.1875 13.9375 C57 17 57 17 55 19 C52.375 18.625 52.375 18.625 50 18 C50.09765625 15.98177083 50.1953125 13.96354167 50.29296875 11.9453125 C50.19628906 11.30335938 50.09960938 10.66140625 50 10 C45.17954272 6.78636181 40.01933197 7.40815545 34.44921875 8.5 C29.25381622 9.99654803 27.72515354 11.29291662 25 16 C21.625 16.6875 21.625 16.6875 18 17 C15.18137797 17.97549761 15.18137797 17.97549761 13 19 C13 17.68 13 16.36 13 15 C13.56589844 14.74605469 14.13179687 14.49210937 14.71484375 14.23046875 C15.44832031 13.88628906 16.18179688 13.54210937 16.9375 13.1875 C17.66839844 12.85105469 18.39929688 12.51460938 19.15234375 12.16796875 C21.33029489 11.06399866 21.33029489 11.06399866 22 8 C21.23816406 8.47050781 20.47632813 8.94101562 19.69140625 9.42578125 C11.26353884 14.50775373 4.00992682 18.6389315 -6 18 C-4.5322693 15.0645386 -2.52343769 14.85946385 0.5 13.6875 C5.32819989 11.75161078 9.79122298 9.57665299 14.2578125 6.91796875 C16 6 16 6 18 6 C18 5.34 18 4.68 18 4 C15.76980273 4.28367868 13.54086546 4.57727388 11.3125 4.875 C9.45044922 5.11863281 9.45044922 5.11863281 7.55078125 5.3671875 C4.06540633 5.85992621 4.06540633 5.85992621 1.23046875 7.1328125 C-1 8 -1 8 -4 7 C-3 5 -3 5 -0.71484375 4.1484375 C0.65994141 3.76558594 0.65994141 3.76558594 2.0625 3.375 C2.98160156 3.11460937 3.90070313 2.85421875 4.84765625 2.5859375 C5.55792969 2.39257812 6.26820313 2.19921875 7 2 C4.69 1.67 2.38 1.34 0 1 C0 0.67 0 0.34 0 0 Z " fill="#E9B651" transform="translate(208,271)"/>
<path d="M0 0 C13.2 0 26.4 0 40 0 C40 4.95 40 9.9 40 15 C38.68 13.68 37.36 12.36 36 11 C32.88144202 10.38576079 32.88144202 10.38576079 29.40625 10.46875 C28.12878906 10.46359375 26.85132812 10.4584375 25.53515625 10.453125 C24.87273926 10.46150391 24.21032227 10.46988281 23.52783203 10.47851562 C21.50561552 10.4999405 19.48695039 10.47870261 17.46484375 10.453125 C16.18738281 10.45828125 14.90992187 10.4634375 13.59375 10.46875 C12.42521484 10.47326172 11.25667969 10.47777344 10.05273438 10.48242188 C6.39623532 11.10236573 5.267703 12.13147534 3 15 C1.76487921 17.13309192 1.76487921 17.13309192 1 19 C0.67 19 0.34 19 0 19 C0 12.73 0 6.46 0 0 Z " fill="#F7EAEA" transform="translate(90,134)"/>
<path d="M0 0 C3.96 0 7.92 0 12 0 C12 0.66 12 1.32 12 2 C12.495 1.67 12.99 1.34 13.5 1 C17.09090894 -0.43636358 20.14456127 -0.12851462 24 0 C24.33 1.32 24.66 2.64 25 4 C22.69 3.67 20.38 3.34 18 3 C18 3.99 18 4.98 18 6 C19.423125 6.2165625 19.423125 6.2165625 20.875 6.4375 C24 7 24 7 26 8 C26.1875 10.875 26.1875 10.875 26 14 C22.64880481 16.23413013 21.5822245 16.23847762 17.67578125 16.1953125 C16.13374023 16.18564453 16.13374023 16.18564453 14.56054688 16.17578125 C13.48869141 16.15902344 12.41683594 16.14226562 11.3125 16.125 C10.22904297 16.11597656 9.14558594 16.10695312 8.02929688 16.09765625 C5.35277052 16.07407452 2.67635759 16.03820336 0 16 C0 10.72 0 5.44 0 0 Z " fill="#C94742" transform="translate(141,225)"/>
<path d="M0 0 C30.23500692 -0.13618429 60.45606467 0.06391302 90.6875 0.5 C91.93139559 0.51793673 91.93139559 0.51793673 93.20042038 0.53623581 C103.46704014 0.68482884 113.73355945 0.83948707 124 1 C123.67 1.66 123.34 2.32 123 3 C111.2447936 3.13228947 99.48956865 3.2627837 87.73431873 3.39115143 C82.27249508 3.45084761 76.8106789 3.51110127 71.34887695 3.57275391 C47.56536078 3.84082899 23.78535385 4.09998774 0 4 C0 2.68 0 1.36 0 0 Z " fill="#E8B550" transform="translate(393,278)"/>
<path d="M0 0 C0 1.32 0 2.64 0 4 C-24.45379385 4.11480965 -48.90403096 3.80524902 -73.355896 3.53643799 C-78.96837243 3.47505394 -84.58086664 3.41534041 -90.19335938 3.35546875 C-101.12892384 3.23857544 -112.06446799 3.11988845 -123 3 C-123.33 2.34 -123.66 1.68 -124 1 C-112.89593349 0.82639102 -101.79176877 0.66012134 -90.6875 0.5 C-89.86411762 0.48812275 -89.04073524 0.4762455 -88.19240189 0.46400833 C-58.79292152 0.04242158 -29.40282539 -0.13243598 0 0 Z " fill="#E8B550" transform="translate(154,278)"/>
<path d="M0 0 C1.32 0 2.64 0 4 0 C4.83986084 1.93467942 5.67168027 3.87285129 6.5 5.8125 C7.19609375 7.43091797 7.19609375 7.43091797 7.90625 9.08203125 C9 12 9 12 9 15 C9.66 15 10.32 15 11 15 C11.12246094 14.28457031 11.24492187 13.56914063 11.37109375 12.83203125 C12.01135375 9.94887287 12.93551556 7.41407527 14.0625 4.6875 C14.60583984 3.36298828 14.60583984 3.36298828 15.16015625 2.01171875 C15.43730469 1.34785156 15.71445312 0.68398437 16 0 C18.9777759 2.49996659 19.94548483 5.04711071 21.1875 8.6875 C21.53167969 9.68136719 21.87585938 10.67523438 22.23046875 11.69921875 C22.48441406 12.45847656 22.73835938 13.21773437 23 14 C23.33773438 13.32453125 23.67546875 12.6490625 24.0234375 11.953125 C27.01171875 5.9765625 27.01171875 5.9765625 30 0 C31.32 0 32.64 0 34 0 C31.24892128 8.90054879 27.59701637 17.41643491 24 26 C23.34 26 22.68 26 22 26 C21.80664062 25.33613281 21.61328125 24.67226562 21.4140625 23.98828125 C21.02347656 22.66376953 21.02347656 22.66376953 20.625 21.3125 C20.36976563 20.44238281 20.11453125 19.57226562 19.8515625 18.67578125 C19.01843149 16.05791547 18.05140346 13.53708227 17 11 C16.65066406 11.84304687 16.30132812 12.68609375 15.94140625 13.5546875 C15.48636719 14.65039062 15.03132813 15.74609375 14.5625 16.875 C14.11003906 17.96554688 13.65757812 19.05609375 13.19140625 20.1796875 C12.50456537 21.80558624 11.78934113 23.42131774 11 25 C10.34 25 9.68 25 9 25 C7.49144661 21.3993541 5.99464176 17.79394041 4.5 14.1875 C4.07074219 13.16333984 3.64148438 12.13917969 3.19921875 11.08398438 C2.79316406 10.10107422 2.38710938 9.11816406 1.96875 8.10546875 C1.59169922 7.19949951 1.21464844 6.29353027 0.82617188 5.36010742 C0 3 0 3 0 0 Z " fill="#DBA053" transform="translate(297,90)"/>
<path d="M0 0 C8.82608696 7.56521739 8.82608696 7.56521739 11 10 C11 10.66 11 11.32 11 12 C11.66 12 12.32 12 13 12 C14.32 13.65 15.64 15.3 17 17 C17.33 11.72 17.66 6.44 18 1 C19.32 1 20.64 1 22 1 C22 9.58 22 18.16 22 27 C15.99136001 21.84973716 10.54302753 16.61895941 5 11 C4.67 15.95 4.34 20.9 4 26 C2.68 26 1.36 26 0 26 C0 17.42 0 8.84 0 0 Z " fill="#DCA254" transform="translate(227,89)"/>
<path d="M0 0 C0.7125293 0.15758789 1.42505859 0.31517578 2.15917969 0.47753906 C5.71367412 1.34487047 8.25036271 2.07150496 10.5 5.0625 C6.44084681 4.61968329 2.52593486 4.10811763 -1.4375 3.125 C-23.90293368 -1.87986211 -49.0737875 -1.98401324 -71.5 3.0625 C-74.01761331 3.47832202 -76.53840021 3.87556044 -79.0625 4.25 C-80.11566406 4.40855469 -81.16882813 4.56710938 -82.25390625 4.73046875 C-82.99511719 4.84003906 -83.73632812 4.94960937 -84.5 5.0625 C-84.5 4.4025 -84.5 3.7425 -84.5 3.0625 C-59.5967883 -8.17923322 -25.97720715 -5.85072233 0 0 Z " fill="#D89B55" transform="translate(315.5,77.9375)"/>
<path d="M0 0 C4.62 0 9.24 0 14 0 C14 1.32 14 2.64 14 4 C11.03 4 8.06 4 5 4 C5 5.65 5 7.3 5 9 C7.97 9 10.94 9 14 9 C14 10.32 14 11.64 14 13 C11.03 13 8.06 13 5 13 C5 15.64 5 18.28 5 21 C7.97 21 10.94 21 14 21 C14 22.32 14 23.64 14 25 C9.38 25 4.76 25 0 25 C0 16.75 0 8.5 0 0 Z " fill="#D99B53" transform="translate(267,90)"/>
<path d="M0 0 C10.49951597 -0.37057115 10.49951597 -0.37057115 12.8359375 1.359375 C14.49121968 3.69232304 14.34194954 5.19601378 14 8 C13.443125 9.0209375 13.443125 9.0209375 12.875 10.0625 C12.58625 10.701875 12.2975 11.34125 12 12 C12.78309467 14.23470405 12.78309467 14.23470405 14 16 C11.625 15.6875 11.625 15.6875 9 15 C8.34 14.01 7.68 13.02 7 12 C6.01 11.67 5.02 11.34 4 11 C4 12.65 4 14.3 4 16 C2.68 16 1.36 16 0 16 C0 10.72 0 5.44 0 0 Z " fill="#F9EBEB" transform="translate(217,225)"/>
<path d="M0 0 C2.89684158 -0.10829314 5.78961019 -0.18743954 8.6875 -0.25 C9.50412109 -0.28351563 10.32074219 -0.31703125 11.16210938 -0.3515625 C15.32243905 -0.41893626 17.45175918 -0.33630996 21.08203125 1.890625 C23 4 23 4 23 6 C17.85244907 9.13293435 13.94749378 9.37993835 8.125 9.1875 C7.34125 9.17396484 6.5575 9.16042969 5.75 9.14648438 C3.83303218 9.11141789 1.91642249 9.05762072 0 9 C0 6.03 0 3.06 0 0 Z " fill="#FBF5F5" transform="translate(214,159)"/>
<path d="M0 0 C1.5675 -0.061875 3.135 -0.12375 4.75 -0.1875 C6.07257813 -0.23970703 6.07257813 -0.23970703 7.421875 -0.29296875 C10.48788728 0.05544174 11.79958848 0.8705695 14 3 C14.44965783 5.92277587 14.29436792 7.46032549 12.875 10.0625 C12.58625 10.701875 12.2975 11.34125 12 12 C12.78309467 14.23470405 12.78309467 14.23470405 14 16 C12.68 16 11.36 16 10 16 C8.95374591 14.70264493 7.95298777 13.36733028 7 12 C6.01 11.67 5.02 11.34 4 11 C4 12.65 4 14.3 4 16 C2.68 16 1.36 16 0 16 C0 10.72 0 5.44 0 0 Z " fill="#FAEFEF" transform="translate(124,225)"/>
<path d="M0 0 C2.25 -0.3125 2.25 -0.3125 5 0 C7.375 2.0625 7.375 2.0625 9 5 C9.11188311 10.92980509 6.7694542 15.55742898 3 20 C0.68030411 21.86186118 -1.21209907 22.81256071 -4 24 C-4.99 23.67 -5.98 23.34 -7 23 C-6.67 22.67 -6.34 22.34 -6 22 C-6.71285156 22.03480469 -7.42570312 22.06960938 -8.16015625 22.10546875 C-14.31112456 22.27931846 -18.55379715 21.90464152 -24 19 C-23.67 18.34 -23.34 17.68 -23 17 C-21.824375 17.33 -20.64875 17.66 -19.4375 18 C-15.4988324 18.9969533 -12.04860871 19.16869203 -8 19 C-8 18.67 -8 18.34 -8 18 C-6.906875 17.7525 -5.81375 17.505 -4.6875 17.25 C-1.08379187 16.28873034 -1.08379187 16.28873034 0.9375 14.3125 C2.86188719 10.12412787 2.45918516 6.34885641 1 2.0625 C0.67 1.381875 0.34 0.70125 0 0 Z " fill="#E8B14F" transform="translate(383,266)"/>
<path d="M0 0 C1.5675 -0.061875 3.135 -0.12375 4.75 -0.1875 C6.07257813 -0.23970703 6.07257813 -0.23970703 7.421875 -0.29296875 C10.44671583 0.05076316 11.75583602 1.00227459 14 3 C13.835 3.9075 13.67 4.815 13.5 5.75 C12.91582349 9.54714732 12.77766636 12.33299907 14 16 C12.35 15.67 10.7 15.34 9 15 C8.67 13.68 8.34 12.36 8 11 C6.68 11 5.36 11 4 11 C4 12.65 4 14.3 4 16 C2.68 16 1.36 16 0 16 C0 10.72 0 5.44 0 0 Z " fill="#F9EFEF" transform="translate(467,225)"/>
<path d="M0 0 C1.32 0 2.64 0 4 0 C8 6.75 8 6.75 8 9 C8.66 9 9.32 9 10 9 C10.268125 8.2575 10.53625 7.515 10.8125 6.75 C11.9607472 4.09090121 13.03501375 2.12218515 15 0 C15.99 0 16.98 0 18 0 C18 5.28 18 10.56 18 16 C17.01 16 16.02 16 15 16 C15 13.03 15 10.06 15 7 C14.34 7 13.68 7 13 7 C12.34 8.98 11.68 10.96 11 13 C9.68 13 8.36 13 7 13 C6.34 11.68 5.68 10.36 5 9 C4.67 11.31 4.34 13.62 4 16 C2.68 16 1.36 16 0 16 C0 10.72 0 5.44 0 0 Z " fill="#F8EAEB" transform="translate(62,225)"/>
<path d="M0 0 C0.86496094 0.01804687 1.72992188 0.03609375 2.62109375 0.0546875 C3.26175781 0.07789063 3.90242188 0.10109375 4.5625 0.125 C4.5625 0.785 4.5625 1.445 4.5625 2.125 C1.79366804 3.60793582 -0.9778973 5.08568862 -3.75 6.5625 C-4.53568359 6.98337891 -5.32136719 7.40425781 -6.13085938 7.83789062 C-6.88818359 8.24072266 -7.64550781 8.64355469 -8.42578125 9.05859375 C-9.12227783 9.43040771 -9.81877441 9.80222168 -10.53637695 10.18530273 C-13.77431489 11.78576801 -16.43470363 12.28313183 -20 12.3125 C-21.17755859 12.33376953 -21.17755859 12.33376953 -22.37890625 12.35546875 C-24.4375 12.125 -24.4375 12.125 -26.4375 10.125 C-24.25532566 8.82356454 -22.06744758 7.53392573 -19.875 6.25 C-19.26591797 5.88519531 -18.65683594 5.52039063 -18.02929688 5.14453125 C-12.26609429 1.79028636 -6.76326927 -0.18529505 0 0 Z " fill="#CF3930" transform="translate(221.4375,274.875)"/>
<path d="M0 0 C6.12767526 1.22553505 6.48181521 2.27558042 10 7 C10.33 4.69 10.66 2.38 11 0 C12.32 0 13.64 0 15 0 C15 5.28 15 10.56 15 16 C10.81900884 14.95475221 10.27154064 14.5894258 7.75 11.4375 C7.22921875 10.79683594 6.7084375 10.15617188 6.171875 9.49609375 C5.78515625 9.00238281 5.3984375 8.50867188 5 8 C4.67 10.64 4.34 13.28 4 16 C2.68 16 1.36 16 0 16 C0 10.72 0 5.44 0 0 Z " fill="#F8E8E8" transform="translate(396,225)"/>
<path d="M0 0 C12.05167441 -0.94112859 21.07743288 3.54279797 31 10 C29 12 29 12 25.375 12.625 C18.18232808 12.53113152 11.84092778 8.27220732 5.68505859 4.91503906 C3.81177139 3.89778603 1.91534821 2.93551712 0 2 C0 1.34 0 0.68 0 0 Z " fill="#D03930" transform="translate(322,275)"/>
<path d="M0 0 C8.36923077 -0.36923077 8.36923077 -0.36923077 11.5625 1.5 C12.036875 1.995 12.51125 2.49 13 3 C12.67 5.31 12.34 7.62 12 10 C11.34 10 10.68 10 10 10 C10.495 10.61875 10.99 11.2375 11.5 11.875 C13 14 13 14 13 16 C11.68 16 10.36 16 9 16 C8.34 14.35 7.68 12.7 7 11 C5.68 11 4.36 11 3 11 C3 12.65 3 14.3 3 16 C2.01 16 1.02 16 0 16 C0 10.72 0 5.44 0 0 Z " fill="#FCF4F4" transform="translate(373,225)"/>
<path d="M0 0 C3.0625 0.1875 3.0625 0.1875 5.0625 2.1875 C4.6875 4.125 4.6875 4.125 4.0625 6.1875 C4.0625 7.1775 4.0625 8.1675 4.0625 9.1875 C5.3825 8.8575 6.7025 8.5275 8.0625 8.1875 C8.3925 10.1675 8.7225 12.1475 9.0625 14.1875 C4.90248439 15.77226785 1.52093134 16.58380501 -2.9375 16.1875 C-3.9275 15.5275 -4.9175 14.8675 -5.9375 14.1875 C-6.41480962 10.46448497 -6.0762261 9.39558915 -3.9375 6.1875 C-3.8978287 4.52130554 -3.89365553 2.85358987 -3.9375 1.1875 C-2.9375 0.1875 -2.9375 0.1875 0 0 Z " fill="#F3D3D2" transform="translate(293.9375,224.8125)"/>
<path d="M0 0 C5.14860706 1.28715177 5.86461447 2.90658001 9 7 C9.33 4.69 9.66 2.38 10 0 C11.32 0 12.64 0 14 0 C14 5.28 14 10.56 14 16 C9.60281354 14.90070338 9.20002666 14.44549271 6.75 10.9375 C6.22921875 10.20402344 5.7084375 9.47054687 5.171875 8.71484375 C4.78515625 8.14894531 4.3984375 7.58304688 4 7 C3.67 9.97 3.34 12.94 3 16 C2.01 16 1.02 16 0 16 C0 10.72 0 5.44 0 0 Z " fill="#FBF2F2" transform="translate(251,225)"/>
<path d="M0 0 C0.99 0.33 1.98 0.66 3 1 C2.125 4.875 2.125 4.875 1 6 C0.49535356 10.37360246 0.47853103 12.31464078 3.1875 15.875 C5.97701716 17.98263518 7.56466156 18.70554242 11 19 C10.34 19.99 9.68 20.98 9 22 C11.97 22.33 14.94 22.66 18 23 C18 23.33 18 23.66 18 24 C13.32691187 24.76653422 9.3305862 25.40941114 4.75 24 C0.72958519 21.07606196 -2.75985566 17.48028867 -5 13 C-5.50856628 7.82957619 -5.50856628 7.82957619 -5 5 C-2.5 2 -2.5 2 0 0 Z " fill="#E8B450" transform="translate(162,265)"/>
<path d="M0 0 C1.65 0 3.3 0 5 0 C5.81604999 1.9151579 6.62770632 3.83218834 7.4375 5.75 C8.11619141 7.35101563 8.11619141 7.35101563 8.80859375 8.984375 C9.73979553 11.3413841 10.4784072 13.52992835 11 16 C9.68 16 8.36 16 7 16 C6.67 14.68 6.34 13.36 6 12 C3.36 12 0.72 12 -2 12 C-2 13.32 -2 14.64 -2 16 C-3.32 16 -4.64 16 -6 16 C-5.37183502 12.05050296 -4.1354471 8.80107972 -2.4375 5.1875 C-1.98246094 4.21167969 -1.52742188 3.23585937 -1.05859375 2.23046875 C-0.70925781 1.49441406 -0.35992187 0.75835937 0 0 Z " fill="#F5DBDB" transform="translate(332,225)"/>
<path d="M0 0 C2.29296875 0.09765625 2.29296875 0.09765625 5 1 C6.80078125 3.87109375 6.80078125 3.87109375 8.3125 7.4375 C8.82425781 8.61183594 9.33601562 9.78617188 9.86328125 10.99609375 C11 14 11 14 11 16 C9.68 16 8.36 16 7 16 C6.67 15.01 6.34 14.02 6 13 C2.58357241 12.74984127 2.58357241 12.74984127 -1 13 C-1.99 14.485 -1.99 14.485 -3 16 C-3.99 16 -4.98 16 -6 16 C-5.37183502 12.05050296 -4.1354471 8.80107972 -2.4375 5.1875 C-1.98246094 4.21167969 -1.52742187 3.23585937 -1.05859375 2.23046875 C-0.70925781 1.49441406 -0.35992187 0.75835937 0 0 Z " fill="#F5DCDC" transform="translate(187,225)"/>
<path d="M0 0 C2.64453125 1.03515625 2.64453125 1.03515625 4.4453125 4.4140625 C4.96958618 5.80106503 5.47283178 7.19616069 5.95703125 8.59765625 C6.22064453 9.30857422 6.48425781 10.01949219 6.75585938 10.75195312 C7.40349374 12.5064535 8.0264213 14.27003814 8.64453125 16.03515625 C6.16953125 15.54015625 6.16953125 15.54015625 3.64453125 15.03515625 C3.64453125 14.04515625 3.64453125 13.05515625 3.64453125 12.03515625 C1.00453125 12.03515625 -1.63546875 12.03515625 -4.35546875 12.03515625 C-4.68546875 13.35515625 -5.01546875 14.67515625 -5.35546875 16.03515625 C-6.67546875 15.70515625 -7.99546875 15.37515625 -9.35546875 15.03515625 C-8.37920844 12.72138946 -7.39961743 10.40913562 -6.41796875 8.09765625 C-6.14017578 7.43830078 -5.86238281 6.77894531 -5.57617188 6.09960938 C-2.99897996 0.04476089 -2.99897996 0.04476089 0 0 Z " fill="#F2DCDB" transform="translate(52.35546875,224.96484375)"/>
<path d="M0 0 C10.78367636 0.4337401 19.24945531 0.87137996 27 9 C27.5 12.1875 27.5 12.1875 27 15 C26.34 15.66 25.68 16.32 25 17 C22.375 16.625 22.375 16.625 20 16 C20.09765625 13.98177083 20.1953125 11.96354167 20.29296875 9.9453125 C20.19628906 9.30335938 20.09960938 8.66140625 20 8 C16.55549263 5.70366176 14.06187717 5.45983515 10 5 C10 4.34 10 3.68 10 3 C9.24074219 3.2165625 8.48148438 3.433125 7.69921875 3.65625 C6.70535156 3.9346875 5.71148437 4.213125 4.6875 4.5 C3.20830078 4.91765625 3.20830078 4.91765625 1.69921875 5.34375 C-1 6 -1 6 -4 6 C-3 3 -3 3 0 1 C0 0.67 0 0.34 0 0 Z " fill="#E7A94D" transform="translate(238,273)"/>
<path d="M0 0 C2.29296875 0.09765625 2.29296875 0.09765625 5 1 C6.80078125 3.87109375 6.80078125 3.87109375 8.3125 7.4375 C8.82425781 8.61183594 9.33601562 9.78617188 9.86328125 10.99609375 C11 14 11 14 11 16 C9.68 16 8.36 16 7 16 C6.67 15.01 6.34 14.02 6 13 C3.36 12.67 0.72 12.34 -2 12 C-2.33 13.32 -2.66 14.64 -3 16 C-3.99 16 -4.98 16 -6 16 C-5.37183502 12.05050296 -4.1354471 8.80107972 -2.4375 5.1875 C-1.98246094 4.21167969 -1.52742187 3.23585937 -1.05859375 2.23046875 C-0.70925781 1.49441406 -0.35992187 0.75835937 0 0 Z " fill="#F6DEDD" transform="translate(238,225)"/>
<path d="M0 0 C3.96 0 7.92 0 12 0 C12 0.99 12 1.98 12 3 C9.36 3 6.72 3 4 3 C4 3.99 4 4.98 4 6 C6.31 6 8.62 6 11 6 C11 6.99 11 7.98 11 9 C8.69 9 6.38 9 4 9 C4 10.32 4 11.64 4 13 C6.64 13 9.28 13 12 13 C12 13.99 12 14.98 12 16 C8.04 16 4.08 16 0 16 C0 10.72 0 5.44 0 0 Z " fill="#F9EEEE" transform="translate(452,225)"/>
<path d="M0 0 C1.32 0 2.64 0 4 0 C4.33 3.63 4.66 7.26 5 11 C6.32 11.33 7.64 11.66 9 12 C10.73956658 10.26043342 10.37190386 7.8063378 10.5625 5.4375 C10.64628906 4.42558594 10.73007813 3.41367188 10.81640625 2.37109375 C10.87699219 1.58863281 10.93757812 0.80617187 11 0 C12.32 0 13.64 0 15 0 C15.77113723 9.78487466 15.77113723 9.78487466 12.9375 14.25 C10 16 10 16 6.375 16.0625 C2.61676568 14.87935216 1.89143103 14.33414419 0 11 C-0.29296875 8.203125 -0.29296875 8.203125 -0.1875 5.25 C-0.16042969 4.26515625 -0.13335937 3.2803125 -0.10546875 2.265625 C-0.07066406 1.51796875 -0.03585938 0.7703125 0 0 Z " fill="#F8E9E9" transform="translate(199,225)"/>
<path d="M0 0 C3.96 0 7.92 0 12 0 C12 0.99 12 1.98 12 3 C9.03 3 6.06 3 3 3 C3 3.99 3 4.98 3 6 C5.64 6 8.28 6 11 6 C11 6.99 11 7.98 11 9 C8.36 9 5.72 9 3 9 C3 10.32 3 11.64 3 13 C5.97 13 8.94 13 12 13 C12 13.99 12 14.98 12 16 C8.04 16 4.08 16 0 16 C0 10.72 0 5.44 0 0 Z " fill="#F9F1F1" transform="translate(524,225)"/>
<path d="M0 0 C3.96 0 7.92 0 12 0 C12 0.99 12 1.98 12 3 C9.03 3 6.06 3 3 3 C3 3.99 3 4.98 3 6 C5.64 6 8.28 6 11 6 C11 6.99 11 7.98 11 9 C8.36 9 5.72 9 3 9 C3 10.32 3 11.64 3 13 C5.97 13 8.94 13 12 13 C12 13.99 12 14.98 12 16 C8.04 16 4.08 16 0 16 C0 10.72 0 5.44 0 0 Z " fill="#FAF0F0" transform="translate(358,225)"/>
<path d="M0 0 C3.96 0 7.92 0 12 0 C12 0.99 12 1.98 12 3 C9.03 3 6.06 3 3 3 C3 3.99 3 4.98 3 6 C5.31 6 7.62 6 10 6 C10 6.99 10 7.98 10 9 C7.69 9 5.38 9 3 9 C3 10.32 3 11.64 3 13 C5.97 13 8.94 13 12 13 C12 13.99 12 14.98 12 16 C8.04 16 4.08 16 0 16 C0 10.72 0 5.44 0 0 Z " fill="#FBF4F4" transform="translate(141,225)"/>
<path d="M0 0 C0.66 0.33 1.32 0.66 2 1 C2 1.99 2 2.98 2 4 C1.36191406 3.98839844 0.72382813 3.97679687 0.06640625 3.96484375 C-0.75988281 3.95582031 -1.58617187 3.94679687 -2.4375 3.9375 C-3.26121094 3.92589844 -4.08492188 3.91429687 -4.93359375 3.90234375 C-6.99163938 3.76732652 -6.99163938 3.76732652 -8 5 C-8.2500773 7.45809998 -8.2500773 7.45809998 -8 10 C-5.64046906 12.35953094 -4.22104383 12.49141413 -1 13 C-1 11.35 -1 9.7 -1 8 C-0.01 8 0.98 8 2 8 C2.1875 10.875 2.1875 10.875 2 14 C-1.51253146 16.34168764 -2.86469356 16.49623677 -7 16 C-9.875 14.5625 -9.875 14.5625 -12 12 C-12.64812539 8.8777264 -12.62146539 6.12508309 -12 3 C-9.01142095 -1.10929619 -4.64063646 -0.2993959 0 0 Z " fill="#FBF2F2" transform="translate(426,225)"/>
<path d="M0 0 C2.3828125 -0.29296875 2.3828125 -0.29296875 5.125 -0.1875 C6.03507812 -0.16042969 6.94515625 -0.13335937 7.8828125 -0.10546875 C8.58148438 -0.07066406 9.28015625 -0.03585938 10 0 C9.67 1.32 9.34 2.64 9 4 C6.03 3.505 6.03 3.505 3 3 C2.67 3.99 2.34 4.98 2 6 C2.928125 6.12375 3.85625 6.2475 4.8125 6.375 C8 7 8 7 11 9 C10.6875 11.375 10.6875 11.375 10 14 C6.64672361 16.23551759 6.09256343 16.17283528 2.3125 15.625 C1.50425781 15.51414063 0.69601562 15.40328125 -0.13671875 15.2890625 C-0.75160156 15.19367188 -1.36648438 15.09828125 -2 15 C-2 14.01 -2 13.02 -2 12 C0.97 12.33 3.94 12.66 7 13 C6.67 12.01 6.34 11.02 6 10 C2.48809191 8.77030122 2.48809191 8.77030122 -1 8 C-1.625 5.6875 -1.625 5.6875 -2 3 C-1.34 2.01 -0.68 1.02 0 0 Z " fill="#FAF0F0" transform="translate(439,225)"/>
<path d="M0 0 C2.01822917 0.06510417 4.03645833 0.13020833 6.0546875 0.1953125 C6.3846875 1.5153125 6.7146875 2.8353125 7.0546875 4.1953125 C4.7446875 3.8653125 2.4346875 3.5353125 0.0546875 3.1953125 C0.0546875 4.1853125 0.0546875 5.1753125 0.0546875 6.1953125 C1.4778125 6.411875 1.4778125 6.411875 2.9296875 6.6328125 C6.0546875 7.1953125 6.0546875 7.1953125 8.0546875 8.1953125 C8.2421875 11.0703125 8.2421875 11.0703125 8.0546875 14.1953125 C4.38603509 16.64108077 2.38268407 16.43138504 -1.9453125 16.1953125 C-2.6053125 15.8653125 -3.2653125 15.5353125 -3.9453125 15.1953125 C-3.9453125 14.2053125 -3.9453125 13.2153125 -3.9453125 12.1953125 C-1.3053125 12.1953125 1.3346875 12.1953125 4.0546875 12.1953125 C4.3846875 11.5353125 4.7146875 10.8753125 5.0546875 10.1953125 C4.48878906 10.06253906 3.92289063 9.92976562 3.33984375 9.79296875 C2.60636719 9.61636719 1.87289062 9.43976563 1.1171875 9.2578125 C0.38628906 9.08378906 -0.34460938 8.90976563 -1.09765625 8.73046875 C-2.9453125 8.1953125 -2.9453125 8.1953125 -3.9453125 7.1953125 C-4.1328125 4.7578125 -4.1328125 4.7578125 -3.9453125 2.1953125 C-1.9453125 0.1953125 -1.9453125 0.1953125 0 0 Z " fill="#FAEEEE" transform="translate(158.9453125,224.8046875)"/>
<path d="M0 0 C1.9375 1.5 1.9375 1.5 3 3 C-0.1964086 4.06546953 -2.65747276 4.07427838 -6 4 C-6.67801034 6.90073181 -6.67801034 6.90073181 -7 10 C-6.34 10.66 -5.68 11.32 -5 12 C-1.40320934 11.67673447 -1.40320934 11.67673447 2 11 C2 12.32 2 13.64 2 15 C-0.85324437 16.42662219 -2.83454549 16.31033868 -6 16 C-9.73400421 13.92555322 -10.78947087 12.64328346 -12.125 8.5625 C-12 5 -12 5 -10 2.0625 C-6.30998011 -0.47438867 -4.39347757 -0.65088557 0 0 Z " fill="#F8ECEC" transform="translate(518,225)"/>
<path d="M0 0 C3.9375 0.5 3.9375 0.5 5.9375 2 C6.4325 2.7425 6.4325 2.7425 6.9375 3.5 C3.74035048 4.56571651 1.27834942 4.5 -2.0625 4.5 C-3.33253323 5.55310277 -3.33253323 5.55310277 -3.25 7.9375 C-3.33089983 10.66734675 -3.33089983 10.66734675 -1.0625 12.5 C2.53429066 12.17673447 2.53429066 12.17673447 5.9375 11.5 C5.9375 12.82 5.9375 14.14 5.9375 15.5 C3.08425563 16.92662219 1.10295451 16.81033868 -2.0625 16.5 C-5.80343467 14.42170296 -6.85399259 13.17458281 -8.125 9.0625 C-8.0625 5.5 -8.0625 5.5 -6.625 2.5625 C-3.94914734 0.40876493 -3.2669763 0.13863553 0 0 Z " fill="#F9ECEC" transform="translate(318.0625,224.5)"/>
<path d="M0 0 C1.32 0 2.64 0 4 0 C5.32 2.97 6.64 5.94 8 9 C9.65 6.03 11.3 3.06 13 0 C13.99 0 14.98 0 16 0 C14.43551329 5.6143991 12.83604813 10.86810338 10 16 C8.68 16 7.36 16 6 16 C4.9955866 13.7101766 3.99632388 11.4183401 3 9.125 C2.71382813 8.47402344 2.42765625 7.82304687 2.1328125 7.15234375 C0 2.2265625 0 2.2265625 0 0 Z " fill="#F9EFEF" transform="translate(482,225)"/>
<path d="M0 0 C-0.33 1.65 -0.66 3.3 -1 5 C-16.98430273 10.55010512 -16.98430273 10.55010512 -22 9 C-20.68 8.67 -19.36 8.34 -18 8 C-18 7.34 -18 6.68 -18 6 C-6.66287016 -0.88838269 -6.66287016 -0.88838269 0 0 Z " fill="#E9B450" transform="translate(300,265)"/>
<path d="M0 0 C4.62 0 9.24 0 14 0 C14 0.99 14 1.98 14 3 C12.35 3 10.7 3 9 3 C9 7.29 9 11.58 9 16 C7.68 16 6.36 16 5 16 C5 11.71 5 7.42 5 3 C3.35 3 1.7 3 0 3 C0 2.01 0 1.02 0 0 Z " fill="#F9EDED" transform="translate(342,225)"/>
<path d="M0 0 C4.62 0 9.24 0 14 0 C14 0.99 14 1.98 14 3 C12.35 3 10.7 3 9 3 C9 7.29 9 11.58 9 16 C7.68 16 6.36 16 5 16 C5 11.71 5 7.42 5 3 C3.35 3 1.7 3 0 3 C0 2.01 0 1.02 0 0 Z " fill="#F9ECEC" transform="translate(267,225)"/>
<path d="M0 0 C4.62 0 9.24 0 14 0 C14 0.99 14 1.98 14 3 C12.35 3 10.7 3 9 3 C9 7.29 9 11.58 9 16 C7.68 16 6.36 16 5 16 C5 11.71 5 7.42 5 3 C3.35 3 1.7 3 0 3 C0 2.01 0 1.02 0 0 Z " fill="#F9EDEE" transform="translate(168,225)"/>
<path d="M0 0 C3.63 0 7.26 0 11 0 C11 0.99 11 1.98 11 3 C8.36 3 5.72 3 3 3 C3 4.32 3 5.64 3 7 C5.31 7 7.62 7 10 7 C10 7.99 10 8.98 10 10 C7.69 10 5.38 10 3 10 C3 11.98 3 13.96 3 16 C2.01 16 1.02 16 0 16 C0 10.72 0 5.44 0 0 Z " fill="#FCF9F9" transform="translate(32,225)"/>
<path d="M0 0 C4.21135709 0.57323372 7.01294352 2.00701617 10.5625 4.3125 C11.49191406 4.90675781 12.42132813 5.50101562 13.37890625 6.11328125 C15.85991523 7.89916402 17.91240637 9.77487079 20 12 C16.03198928 11.27921903 12.2320487 10.23734817 8.375 9.0625 C7.24835938 8.72347656 6.12171875 8.38445312 4.9609375 8.03515625 C2 7 2 7 -1 5 C-0.67 3.35 -0.34 1.7 0 0 Z " fill="#E8B04F" transform="translate(249,264)"/>
<path d="M0 0 C1.32 0 2.64 0 4 0 C5.625 2.4375 5.625 2.4375 7 5 C7.66 5.33 8.32 5.66 9 6 C9.66 4.02 10.32 2.04 11 0 C12.32 0.33 13.64 0.66 15 1 C14.65066406 1.58007812 14.30132812 2.16015625 13.94140625 2.7578125 C11.36970109 7.17269444 9.40004495 10.79941563 9 16 C8.01 16 7.02 16 6 16 C5.938125 15.01 5.87625 14.02 5.8125 13 C5.25570029 8.86618398 3.37689705 6.00349199 1.05859375 2.6015625 C0 1 0 1 0 0 Z " fill="#FAF2F2" transform="translate(101,225)"/>
<path d="M0 0 C-0.140625 1.8046875 -0.140625 1.8046875 -1 4 C-3.546875 5.6328125 -3.546875 5.6328125 -6.75 7.125 C-8.32007813 7.87136719 -8.32007813 7.87136719 -9.921875 8.6328125 C-10.93765625 9.08398438 -11.9534375 9.53515625 -13 10 C-13.82628906 10.38414062 -14.65257812 10.76828125 -15.50390625 11.1640625 C-18.50243803 12.16826563 -21.0303137 12.26568788 -24.1875 12.25 C-25.23292969 12.25515625 -26.27835938 12.2603125 -27.35546875 12.265625 C-30 12 -30 12 -32 10 C-30.54980469 9.87044922 -30.54980469 9.87044922 -29.0703125 9.73828125 C-20.73548437 8.83878 -14.26059458 7.45727621 -7 3 C-2.03448276 0 -2.03448276 0 0 0 Z " fill="#D24533" transform="translate(230,279)"/>
<path d="M0 0 C3.79996178 0.66204585 6.53753667 2.4560442 9.8125 4.4375 C17.11455171 8.48681959 23.70465458 9.43779817 32 10 C29.47583796 12.52416204 28.50215204 12.32525352 25 12.375 C15.57036434 12.19034656 7.95550647 7.68875261 0 3 C0 2.01 0 1.02 0 0 Z " fill="#D34232" transform="translate(318,279)"/>
<path d="M0 0 C2.23046875 0.12890625 2.23046875 0.12890625 5 1 C7.23828125 3.65234375 7.23828125 3.65234375 9.3125 6.9375 C10.00988281 8.01902344 10.70726562 9.10054688 11.42578125 10.21484375 C13 13 13 13 13 15 C9.47761953 13.43632643 6.72876006 11.30504111 3.75 8.875 C2.85796875 8.15054687 1.9659375 7.42609375 1.046875 6.6796875 C0.03367187 5.84824219 0.03367187 5.84824219 -1 5 C-0.67 3.35 -0.34 1.7 0 0 Z " fill="#E8B250" transform="translate(258,259)"/>
<path d="M0 0 C2.24940295 -0.08119503 4.49964871 -0.13927819 6.75 -0.1875 C8.00296875 -0.22230469 9.2559375 -0.25710937 10.546875 -0.29296875 C14.14109357 0.01197061 15.44725126 0.54394629 18 3 C14.31912647 5.45391569 11.55644412 5.22802759 7.3125 5.125 C6.2596582 5.11146484 6.2596582 5.11146484 5.18554688 5.09765625 C3.45688475 5.07413704 1.72839855 5.03826713 0 5 C0 3.35 0 1.7 0 0 Z " fill="#D99C53" transform="translate(440,122)"/>
<path d="M0 0 C1.27230469 0.01804687 2.54460937 0.03609375 3.85546875 0.0546875 C5.31919922 0.08949219 5.31919922 0.08949219 6.8125 0.125 C6.8125 1.775 6.8125 3.425 6.8125 5.125 C4.35351345 5.20576963 1.89716258 5.26537143 -0.5625 5.3125 C-1.61050781 5.35020508 -1.61050781 5.35020508 -2.6796875 5.38867188 C-4.7109375 5.41796875 -4.7109375 5.41796875 -8.1875 5.125 C-8.8475 4.135 -9.5075 3.145 -10.1875 2.125 C-6.4507157 -0.36618953 -4.44298181 -0.0815226 0 0 Z " fill="#D99C53" transform="translate(103.1875,121.875)"/>
<path d="M0 0 C0 1.32 0 2.64 0 4 C-2.27635016 5.79492884 -4.40904939 7.26849934 -6.875 8.75 C-7.85146484 9.36681641 -7.85146484 9.36681641 -8.84765625 9.99609375 C-13.68783742 13 -13.68783742 13 -16 13 C-14.47493019 9.44422227 -12.37527213 7.01456562 -9.6875 4.25 C-8.92824219 3.45078125 -8.16898437 2.6515625 -7.38671875 1.828125 C-4.64079849 -0.27513307 -3.37275956 -0.40592504 0 0 Z " fill="#E8B350" transform="translate(292,260)"/>
<path d="M0 0 C0.99 0 1.98 0 3 0 C3 4.29 3 8.58 3 13 C5.97 13 8.94 13 12 13 C12 13.99 12 14.98 12 16 C8.04 16 4.08 16 0 16 C0 10.72 0 5.44 0 0 Z " fill="#FAF0F1" transform="translate(91,225)"/>
<path d="M0 0 C0 0.99 0 1.98 0 3 C-9.98326182 4.79340033 -19.96517043 6.51659041 -30 8 C-30 7.34 -30 6.68 -30 6 C-25.33976334 3.88430974 -20.54516725 2.91065832 -15.5625 1.875 C-14.72912109 1.69324219 -13.89574219 1.51148437 -13.03710938 1.32421875 C-8.61513274 0.39438018 -4.54721395 -0.22181531 0 0 Z " fill="#D59052" transform="translate(261,75)"/>
<path d="M0 0 C-3.30664983 1.82186775 -6.62040847 2.80189098 -10.25 3.8125 C-15.2371382 5.29910475 -19.27694744 7.03628812 -23.51171875 10.046875 C-25 11 -25 11 -27 11 C-26.79296875 9.1640625 -26.79296875 9.1640625 -26 7 C-22.8951907 4.88335034 -19.44231435 3.49184527 -16 2 C-15.01 1.566875 -14.02 1.13375 -13 0.6875 C-8.66344946 -0.30629283 -4.42837615 -0.15753117 0 0 Z " fill="#CF4031" transform="translate(219,272)"/>
<path d="M0 0 C9.90277557 -0.9858958 18.90485976 2.26409918 27 8 C27 8.99 27 9.98 27 11 C23.98416902 9.86906338 21.15382913 8.56673307 18.3125 7.0625 C14.42723149 5.0793174 10.49952741 3.84859818 6.296875 2.7109375 C4.04162746 2.01288469 2.07654915 1.11447822 0 0 Z " fill="#D04032" transform="translate(329,272)"/>
<path d="M0 0 C0.2358396 5.77807024 -0.13216954 10.51324804 -2 16 C-2.66 16 -3.32 16 -4 16 C-5.46670113 10.77487721 -6.22577402 6.4185766 -6 1 C-4 0 -4 0 0 0 Z " fill="#E7AC4E" transform="translate(276,257)"/>
<path d="M0 0 C0.99 0 1.98 0 3 0 C3 5.28 3 10.56 3 16 C2.01 16 1.02 16 0 16 C0 13.03 0 10.06 0 7 C-1.65 7.66 -3.3 8.32 -5 9 C-3.76067171 5.56801397 -2.49698489 2.69674368 0 0 Z " fill="#FCF8F8" transform="translate(77,225)"/>
<path d="M0 0 C1.32 0 2.64 0 4 0 C4 5.28 4 10.56 4 16 C2.68 16 1.36 16 0 16 C0 10.72 0 5.44 0 0 Z " fill="#F8EBEB" transform="translate(500,225)"/>
<path d="M0 0 C1.32 0 2.64 0 4 0 C4 5.28 4 10.56 4 16 C2.68 16 1.36 16 0 16 C0 10.72 0 5.44 0 0 Z " fill="#FAF0F0" transform="translate(389,225)"/>
<path d="M0 0 C1.67542976 0.28604898 3.34385343 0.61781233 5 1 C5.33 2.32 5.66 3.64 6 5 C5.01 5.66 4.02 6.32 3 7 C2.26393501 10.56769552 2.26393501 10.56769552 2 14 C1.67 14 1.34 14 1 14 C0.87625 12.88625 0.7525 11.7725 0.625 10.625 C0.3534187 6.96896323 0.3534187 6.96896323 -2 5 C-1.46428571 1.46428571 -1.46428571 1.46428571 0 0 Z " fill="#E8AF4F" transform="translate(272,275)"/>
<path d="M0 0 C0.99 0 1.98 0 3 0 C3 5.28 3 10.56 3 16 C2.01 16 1.02 16 0 16 C0 10.72 0 5.44 0 0 Z " fill="#FEFCFC" transform="translate(84,225)"/>
<path d="M0 0 C1.8125 1.375 1.8125 1.375 3 3 C3.66 3.66 4.32 4.32 5 5 C1.28233332 6.23922223 -0.43889537 5.57018942 -4.1875 4.5625 C-5.27417969 4.27503906 -6.36085938 3.98757813 -7.48046875 3.69140625 C-8.31191406 3.46324219 -9.14335937 3.23507812 -10 3 C-10 2.34 -10 1.68 -10 1 C-6.44646071 -0.1845131 -3.72986522 -0.26641894 0 0 Z " fill="#E5A14B" transform="translate(310,273)"/>
<path d="M0 0 C-1 2 -1 2 -3.16796875 3.1171875 C-6.36973755 4.11525612 -8.96660419 4.19853617 -12.3125 4.125 C-13.38113281 4.10695313 -14.44976562 4.08890625 -15.55078125 4.0703125 C-16.35902344 4.04710937 -17.16726562 4.02390625 -18 4 C-18.33 3.34 -18.66 2.68 -19 2 C-17.64455078 1.80083984 -17.64455078 1.80083984 -16.26171875 1.59765625 C-15.08222656 1.42105469 -13.90273437 1.24445313 -12.6875 1.0625 C-10.92986328 0.80146484 -10.92986328 0.80146484 -9.13671875 0.53515625 C-2.03130148 -0.67710049 -2.03130148 -0.67710049 0 0 Z " fill="#D04632" transform="translate(189,284)"/>
<path d="M0 0 C1.6396875 0.4640625 1.6396875 0.4640625 3.3125 0.9375 C8.48276323 2.2463099 13.69261392 2.62926347 19 3 C16.43748811 5.56251189 15.36893409 5.29778372 11.8125 5.3125 C6.7835315 5.2397123 3.41166152 4.35288614 -1 2 C-0.67 1.34 -0.34 0.68 0 0 Z " fill="#D14633" transform="translate(360,283)"/>
<path d="M0 0 C4.54805635 -0.17835515 7.8794254 0.00214565 12 2 C9.64398401 4.35601599 8.9044427 4.30838856 5.6875 4.5625 C2.39675525 4.85972856 -0.7709334 5.27085593 -4 6 C-3 3 -3 3 0 1 C0 0.67 0 0.34 0 0 Z " fill="#DD7A41" transform="translate(238,273)"/>
<path d="M0 0 C1.98 0.99 1.98 0.99 4 2 C3.01 2.495 3.01 2.495 2 3 C1.67 4.65 1.34 6.3 1 8 C8.59 8 16.18 8 24 8 C24 8.33 24 8.66 24 9 C16.08 9 8.16 9 0 9 C0 6.03 0 3.06 0 0 Z " fill="#D4734F" transform="translate(295,190)"/>
<path d="M0 0 C-0.33 0.66 -0.66 1.32 -1 2 C-3.8359375 2.8515625 -3.8359375 2.8515625 -7.375 3.625 C-8.53773438 3.88539062 -9.70046875 4.14578125 -10.8984375 4.4140625 C-14 5 -14 5 -17 5 C-17 4.34 -17 3.68 -17 3 C-11.34507634 0.50518074 -6.15261013 -0.14649072 0 0 Z " fill="#D99E54" transform="translate(248,78)"/>
<path d="M0 0 C-3.1622274 1.73169596 -6.26742722 2.7128976 -9.75 3.625 C-10.73484375 3.88539063 -11.7196875 4.14578125 -12.734375 4.4140625 C-13.85585937 4.70410156 -13.85585937 4.70410156 -15 5 C-15.33 4.01 -15.66 3.02 -16 2 C-10.60539047 -0.27141454 -5.73842251 -0.20413361 0 0 Z " fill="#D45638" transform="translate(219,272)"/>
<path d="M0 0 C1.65 0 3.3 0 5 0 C5.33 1.65 5.66 3.3 6 5 C4.02 5 2.04 5 0 5 C0 3.35 0 1.7 0 0 Z " fill="#C93D37" transform="translate(376,228)"/>
<path d="M0 0 C1.65 0 3.3 0 5 0 C5.5625 1.9375 5.5625 1.9375 6 4 C5 5 5 5 2.4375 5.0625 C1.2309375 5.0315625 1.2309375 5.0315625 0 5 C0 3.35 0 1.7 0 0 Z " fill="#BC322E" transform="translate(471,228)"/>
<path d="M0 0 C1.65 0 3.3 0 5 0 C5.5625 1.9375 5.5625 1.9375 6 4 C5 5 5 5 2.4375 5.0625 C1.2309375 5.0315625 1.2309375 5.0315625 0 5 C0 3.35 0 1.7 0 0 Z " fill="#C93632" transform="translate(221,228)"/>
<path d="M0 0 C1.65 0 3.3 0 5 0 C5.5625 1.9375 5.5625 1.9375 6 4 C5 5 5 5 2.4375 5.0625 C1.2309375 5.0315625 1.2309375 5.0315625 0 5 C0 3.35 0 1.7 0 0 Z " fill="#C1322D" transform="translate(128,228)"/>
<path d="M0 0 C1.60407328 -0.02708567 3.2082785 -0.04643483 4.8125 -0.0625 C5.70582031 -0.07410156 6.59914063 -0.08570313 7.51953125 -0.09765625 C10 0 10 0 13 1 C13 1.99 13 2.98 13 4 C8.71 3.01 4.42 2.02 0 1 C0 0.67 0 0.34 0 0 Z " fill="#D65939" transform="translate(329,272)"/>
<path d="M0 0 C0.99 0 1.98 0 3 0 C3.33 0.99 3.66 1.98 4 3 C4.99 3.66 5.98 4.32 7 5 C6 6 6 6 3.5 6.125 C1 6 1 6 0 5 C-0.04063832 3.33382885 -0.042721 1.66611905 0 0 Z " fill="#FBF1F1" transform="translate(288,234)"/>
<path d="M0 0 C1.32 0.99 2.64 1.98 4 3 C-0.29 2.67 -4.58 2.34 -9 2 C-5.51131349 -0.32579101 -4.10281481 -0.41865457 0 0 Z " fill="#DA9F54" transform="translate(312,77)"/>
<path d="M0 0 C2.31 0 4.62 0 7 0 C6.67 1.32 6.34 2.64 6 4 C3.69 3.67 1.38 3.34 -1 3 C-0.67 2.01 -0.34 1.02 0 0 Z " fill="#F7E7E7" transform="translate(442,225)"/>
<path d="M0 0 C1.65 0 3.3 0 5 0 C5.33 1.32 5.66 2.64 6 4 C3.69 3.67 1.38 3.34 -1 3 C-0.67 2.01 -0.34 1.02 0 0 Z " fill="#F7E7E6" transform="translate(160,225)"/>
<path d="M0 0 C6.0546875 -0.1953125 6.0546875 -0.1953125 8 0 C8.66 0.66 9.32 1.32 10 2 C6.06329512 3.31223496 3.87511856 2.24296256 0 1 C0 0.67 0 0.34 0 0 Z " fill="#D44633" transform="translate(305,276)"/>
<path d="M0 0 C0.66 0.33 1.32 0.66 2 1 C-0.31 3.31 -2.62 5.62 -5 8 C-5.33 7.34 -5.66 6.68 -6 6 C-4 4 -2 2 0 0 Z " fill="#F5E5E5" transform="translate(425,136)"/>
<path d="M0 0 C-0.33 0.99 -0.66 1.98 -1 3 C-1.99 3 -2.98 3 -4 3 C-4 2.34 -4 1.68 -4 1 C-5.32 0.67 -6.64 0.34 -8 0 C-4.94736336 -0.98120464 -3.05263664 -0.98120464 0 0 Z " fill="#D69352" transform="translate(133,115)"/>
<path d="M0 0 C3.465 1.485 3.465 1.485 7 3 C7 3.66 7 4.32 7 5 C4.69 4.34 2.38 3.68 0 3 C0 2.01 0 1.02 0 0 Z " fill="#D58F53" transform="translate(206,104)"/>
</svg>
